/vscmnt/brussel_pixiu_data/_data_brussel/112/vsc11236/PredSimResults/SUBJ10mtu3D/weighted-trackIG/worker_01.mot
version=1
nRows=11
nColumns=50
inDegrees=yes
endheader
                time	         pelvis_tilt	         pelvis_list	     pelvis_rotation	           pelvis_tx	           pelvis_ty	           pelvis_tz	       hip_flexion_r	     hip_adduction_r	      hip_rotation_r	        knee_angle_r	       ankle_angle_r	         mtp_angle_r	       hip_flexion_l	     hip_adduction_l	      hip_rotation_l	        knee_angle_l	       ankle_angle_l	         mtp_angle_l	    lumbar_extension	      lumbar_bending	     lumbar_rotation	 ercspn_r/activation	 intobl_r/activation	 extobl_r/activation	    abd_r/activation	    add_r/activation	hamstrings_r/activation	bifemsh_r/activation	glut_max_r/activation	iliopsoas_r/activation	rect_fem_r/activation	  vasti_r/activation	gastroc_r/activation	 soleus_r/activation	tib_ant_r/activation	 ercspn_l/activation	 intobl_l/activation	 extobl_l/activation	    abd_l/activation	    add_l/activation	hamstrings_l/activation	bifemsh_l/activation	glut_max_l/activation	iliopsoas_l/activation	rect_fem_l/activation	  vasti_l/activation	gastroc_l/activation	 soleus_l/activation	tib_ant_l/activation	
          0.00000000	         -3.77530408	         -2.93957177	          9.91133846	          0.00000000	          0.82914291	         -0.01334426	         27.61562782	         -0.69594046	         -7.67205420	         -3.26586356	          6.89608784	          0.25286404	        -14.30277479	         -3.42493781	          5.64726779	         -7.52077441	          9.49917380	         24.71038701	         -8.11875737	          1.19324581	         -3.60156493	          0.09052407	          0.16658985	          0.02136809	          0.01208283	          0.09488494	          0.03688185	          0.14914674	          0.01000003	          0.07231574	          0.01135883	          0.01000013	          0.01537970	          0.01105088	          0.26052295	          0.02719782	          0.01000003	          0.01000005	          0.04051517	          0.01807811	          0.02148679	          0.13383036	          0.03256345	          0.30194898	          0.01000072	          0.01000017	          0.23747627	          0.23220401	          0.01784291	
          0.01122809	         -3.84510807	         -2.75936205	          9.71805196	          0.01516220	          0.82755235	         -0.01302431	         27.67051453	         -0.45918958	         -6.53954456	         -4.78730652	          6.62829438	          0.25490365	        -14.39369486	         -3.20920719	          4.95469193	         -9.25750144	          8.93604637	         26.33367528	         -7.91767522	          1.54146326	         -3.78748937	          0.07625429	          0.14032980	          0.01799972	          0.01017816	          0.17258315	          0.03106929	          0.12563966	          0.05747134	          0.06091621	          0.01000038	          0.01000007	          0.01985913	          0.01409322	          0.26036961	          0.07629676	          0.01000005	          0.01000015	          0.03412853	          0.06214302	          0.01809987	          0.11273394	          0.02743029	          0.31658259	          0.01000052	          0.01000043	          0.20004153	          0.21764338	          0.01503023	
          0.02245619	         -3.89974300	         -2.58971726	          9.46824280	          0.03064756	          0.82606104	         -0.01267429	         27.55016246	         -0.26124333	         -5.38410482	         -6.32451383	          6.35064560	          0.24234466	        -14.35633432	         -2.99189222	          4.20602026	        -11.29029175	          8.28740153	         27.88700780	         -7.69413661	          1.91922557	         -3.95089057	          0.06423906	          0.12553635	          0.01516233	          0.05058629	          0.14537812	          0.04279361	          0.10583534	          0.05585415	          0.05131364	          0.01000011	          0.01000003	          0.01672866	          0.01187166	          0.29314251	          0.08992257	          0.01000002	          0.01000011	          0.02874866	          0.05365519	          0.01524750	          0.09496307	          0.02310630	          0.30332009	          0.01000034	          0.01000012	          0.16850784	          0.20106804	          0.01266093	
          0.03368428	         -3.94133779	         -2.42819904	          9.16043365	          0.04625463	          0.82482619	         -0.01222732	         27.29279776	         -0.05240404	         -4.30739456	         -7.62837194	          5.96452669	          0.23411637	        -14.11855187	         -2.77699101	          3.40603402	        -13.70278786	          7.51439226	         29.30460128	         -7.47103055	          2.31180995	         -4.09136814	          0.07955436	          0.10574736	          0.01277222	          0.10061546	          0.15231626	          0.04387255	          0.08915206	          0.06910718	          0.04322478	          0.01000016	          0.01000007	          0.01409166	          0.01000031	          0.31416133	          0.11403487	          0.01000004	          0.01000010	          0.02421684	          0.05641678	          0.01572739	          0.07999353	          0.01946393	          0.29121558	          0.01000043	          0.01113512	          0.14194498	          0.16938092	          0.01066512	
          0.04491238	         -3.97033652	         -2.27355127	          8.79940026	          0.06180100	          0.82399536	         -0.01168860	         26.98481485	          0.17905881	         -3.33486553	         -8.84841553	          5.57482128	          0.22276060	        -13.63260868	         -2.56855607	          2.54589569	        -16.54045335	          6.61256615	         30.41750564	         -7.26506951	          2.71699479	         -4.20784389	          0.07754803	          0.08907781	          0.01075888	          0.12537380	          0.16405394	          0.04257576	          0.07509861	          0.07668444	          0.03641102	          0.01000014	          0.02960439	          0.01187037	          0.01000028	          0.33562872	          0.13745207	          0.01000003	          0.01000007	          0.02039940	          0.07151953	          0.01816475	          0.06738374	          0.01639572	          0.26953999	          0.01000014	          0.01000013	          0.11956938	          0.14268044	          0.01000001	
          0.05614047	         -3.98708742	         -2.12524953	          8.38814574	          0.07718060	          0.82366328	         -0.01107138	         26.64522788	          0.42598620	         -2.46651490	        -10.02314209	          5.26982179	          0.21138008	        -12.86983334	         -2.37689074	          1.60693070	        -19.82154689	          5.58322247	         31.02608759	         -7.08392660	          3.13174817	         -4.29996292	          0.06665459	          0.07503597	          0.01000007	          0.13678752	          0.15303997	          0.04517699	          0.06326051	          0.06459648	          0.03067135	          0.01000012	          0.07458769	          0.01000017	          0.01000016	          0.34600407	          0.14957465	          0.01000004	          0.01000006	          0.01718373	          0.08204804	          0.01597015	          0.05676172	          0.01381117	          0.23695265	          0.01000011	          0.01000005	          0.10072097	          0.12018891	          0.01000002	
          0.06736857	         -3.99320860	         -1.97793334	          7.92751244	          0.09233447	          0.82390285	         -0.01039129	         26.23755540	          0.67649600	         -1.68847744	        -11.08398095	          5.08288781	          0.19877293	        -11.82984497	         -2.21364966	          0.58460790	        -23.50415990	          4.35592870	         31.03042325	         -6.93231973	          3.54753425	         -4.36778652	          0.05614749	          0.06320763	          0.01000009	          0.13960725	          0.12891550	          0.04560419	          0.05328852	          0.05441394	          0.02583645	          0.01000011	          0.12621416	          0.01000064	          0.01000082	          0.34888733	          0.15630605	          0.01000004	          0.01000009	          0.01447496	          0.09608662	          0.01497454	          0.04781426	          0.01163404	          0.19960054	          0.01000007	          0.01000001	          0.08484374	          0.10124284	          0.01000001	
          0.07859666	         -3.99106892	         -1.82249000	          7.41464334	          0.10722401	          0.82477251	         -0.00967551	         25.70780740	          0.91465690	         -0.99450711	        -11.93100386	          5.03376488	          0.18840656	        -10.53659449	         -2.08420430	         -0.51024147	        -27.48094389	          2.79767158	         30.43469606	         -6.81380758	          3.95441830	         -4.40755380	          0.04729666	          0.05324386	          0.01000008	          0.13972938	          0.10859383	          0.04699769	          0.04488850	          0.04583647	          0.02176371	          0.01000010	          0.15472022	          0.01000021	          0.01000018	          0.34159161	          0.15620302	          0.01000002	          0.01000010	          0.01219319	          0.11142519	          0.01261927	          0.04294372	          0.01000000	          0.16813638	          0.01000005	          0.01000000	          0.07146934	          0.08528335	          0.01807610	
          0.08982476	         -3.98223250	         -1.64646377	          6.84990877	          0.12182174	          0.82623487	         -0.00894822	         25.03776128	          1.12180214	         -0.35956457	        -12.52582871	          5.10131867	          0.18207173	         -9.03124563	         -1.98861433	         -1.66265865	        -31.64934498	          1.00671291	         28.99499232	         -6.73167043	          4.33820544	         -4.41740605	          0.03984103	          0.04485073	          0.01000013	          0.14893864	          0.09147558	          0.04622391	          0.03781262	          0.03861106	          0.01833298	          0.01000009	          0.14970809	          0.01185361	          0.01155205	          0.32618647	          0.16514258	          0.02708851	          0.01000011	          0.01027111	          0.09510592	          0.01409288	          0.03617466	          0.01000001	          0.14163210	          0.01000007	          0.01000001	          0.06020322	          0.07183965	          0.07387941	
          0.10105285	         -3.96665877	         -1.44856184	          6.24661838	          0.13609616	          0.82812960	         -0.00821639	         24.26397638	          1.28989400	          0.24255439	        -12.92455528	          5.24932350	          0.18102604	         -7.37711561	         -1.93453497	         -2.85648203	        -35.92692359	         -0.62724480	         26.37025331	         -6.68770487	          4.68933684	         -4.40183873	          0.03356067	          0.03778066	          0.01000010	          0.15444489	          0.07705576	          0.04445979	          0.03185212	          0.03580065	          0.01544305	          0.01000009	          0.15294098	          0.01000031	          0.01000041	          0.31230548	          0.18172678	          0.05794458	          0.01000043	          0.01000000	          0.08011384	          0.01187142	          0.03050557	          0.01000001	          0.11930587	          0.01000012	          0.01000001	          0.05071305	          0.06051516	          0.17008175	
          0.11228095	         -3.94376572	         -1.22833997	          5.61350036	          0.15005695	          0.83027278	         -0.00748190	         23.40733035	          1.41417398	          0.82147030	        -13.15601861	          5.43181820	          0.18379678	         -5.68284736	         -1.89464927	         -4.05921132	        -40.10553171	         -1.42107033	         22.96822711	         -6.67842251	          4.99549342	         -4.35836796	          0.02827032	          0.03182508	          0.01000009	          0.14774796	          0.06490903	          0.04354120	          0.02683121	          0.03584272	          0.01300869	          0.01000008	          0.14538129	          0.01000012	          0.01000010	          0.29525524	          0.18688547	          0.06268289	          0.01419514	          0.01000001	          0.06748504	          0.01000026	          0.05991597	          0.01000001	          0.10768878	          0.01000015	          0.01000000	          0.04271897	          0.05097581	          0.18642809	
